<?xml version="1.0" encoding="utf-8"?>
<!-- Generator: Adobe Illustrator 16.1.0, SVG Export Plug-In . SVG Version: 6.00 Build 0)  -->
<!DOCTYPE svg PUBLIC "-//W3C//DTD SVG 1.1//EN" "http://www.w3.org/Graphics/SVG/1.1/DTD/svg11.dtd">
<svg version="1.1" xmlns="http://www.w3.org/2000/svg" xmlns:xlink="http://www.w3.org/1999/xlink" x="0px" y="0px" width="295px"
	 height="60px" viewBox="0 0 295 60" enable-background="new 0 0 295 60" xml:space="preserve">
<g id="Layer_3">
	<rect x="-323" y="-189.68" display="none" fill="#FB5454" width="900.667" height="529"/>
	<g opacity="0.2">
		<g>
			<path d="M79.688,24.503l-7.282,19.74h6.776l0.713-2.308h7.103l0.712,2.308h6.776l-7.28-19.74H79.688z M81.493,36.726l1.952-6.361
				l1.955,6.361H81.493z"/>
			<polygon points="108.565,33.857 101.7,24.503 95.544,24.503 95.544,44.243 101.525,44.243 101.525,34.242 108.807,44.243 
				114.548,44.243 114.548,24.503 108.565,24.503 			"/>
			<polygon points="125.997,31.161 122.323,24.503 115.604,24.503 123.005,36.401 123.005,44.243 128.982,44.243 128.982,36.401 
				136.323,24.503 129.606,24.503 			"/>
			<polygon points="137.503,29.713 142.8,29.713 142.8,44.243 148.778,44.243 148.778,29.713 154.047,29.713 154.047,24.503 
				137.503,24.503 			"/>
			<polygon points="169.077,31.489 162.002,31.489 162.002,24.503 156.024,24.503 156.024,44.243 162.002,44.243 162.002,36.697 
				169.077,36.697 169.077,44.243 175.055,44.243 175.055,24.503 169.077,24.503 			"/>
			<rect x="178.097" y="24.503" width="5.979" height="19.74"/>
			<polygon points="200.175,33.857 193.31,24.503 187.152,24.503 187.152,44.243 193.133,44.243 193.133,34.242 200.413,44.243 
				206.153,44.243 206.153,24.503 200.175,24.503 			"/>
			<path d="M211.83,24.209c-1.657,0-3.079,1.389-3.079,3.107c0,1.656,1.153,2.752,2.573,2.752c0.33,0,0.621-0.061,0.768-0.117
				c-0.382,1.123-1.742,2.425-2.687,2.838l2.156,1.748c2.31-1.628,3.702-3.906,3.702-6.511
				C215.264,25.598,213.637,24.209,211.83,24.209z"/>
			<path d="M226.565,37.732h3.675v0.71c-0.626,0.476-1.956,0.888-3.082,0.888c-2.869,0-4.793-2.188-4.793-4.939
				c0-2.755,1.924-4.946,4.793-4.946c1.777,0,3.082,1.245,3.64,2.457l5.033-2.573c-1.244-2.545-3.967-5.149-8.673-5.149
				c-5.979,0-10.861,3.876-10.861,10.212c0,6.303,4.882,10.208,10.861,10.208c3.877,0,6.84-1.567,9.026-3.996v-8.078h-9.619V37.732z
				"/>
			<path d="M248.581,24.179c-6.097,0-10.804,4.145-10.804,10.212c0,6.066,4.707,10.208,10.804,10.208s10.804-4.142,10.804-10.208
				C259.385,28.323,254.678,24.179,248.581,24.179z M248.581,39.33c-2.872,0-4.733-2.188-4.733-4.939
				c0-2.755,1.861-4.946,4.733-4.946c2.871,0,4.736,2.191,4.736,4.946C253.317,37.142,251.452,39.33,248.581,39.33z"/>
			<polygon points="261.301,44.243 276.279,44.243 276.279,39.033 267.282,39.033 267.282,36.876 276.07,36.876 276.07,31.668 
				267.282,31.668 267.282,29.713 276.279,29.713 276.279,24.503 261.301,24.503 			"/>
			<path d="M284.265,30.129c0-0.504,0.323-0.89,1.509-0.89c1.865,0,4.085,0.65,5.8,1.954l3.197-4.234
				c-2.249-1.832-5.151-2.75-8.378-2.75c-5.415,0-8.197,3.195-8.197,6.538c0,7.786,11.013,5.861,11.013,7.756
				c0,0.77-1.067,1.067-2.191,1.067c-2.665,0-4.884-1.128-6.363-2.547l-3.108,4.439c2.1,1.896,4.973,3.136,9.175,3.136
				c5.299,0,8.524-2.515,8.524-6.866C295.244,30.393,284.265,31.993,284.265,30.129z"/>
		</g>
		<g>
			<path d="M21.624,29.543v5.011c0,0.024,0.007,0.05,0.008,0.072c-0.006,0.077-0.013,0.154-0.013,0.229
				c0,1.308,0.762,2.431,1.858,2.973h14.062c1.1-0.542,1.859-1.665,1.859-2.973c0-0.08-0.004-0.157-0.01-0.236
				c0-0.021,0.006-0.041,0.006-0.065v-5.011c3.567-3.207,5.756-7.998,5.756-12.698c0-8.24-6.705-15.199-14.641-15.199
				c-7.938,0-14.642,6.959-14.642,15.199C15.868,21.545,18.057,26.336,21.624,29.543z"/>
			<path d="M27.308,45.129h6.405c1.225,0,2.223-0.927,2.36-2.114H24.947C25.085,44.202,26.082,45.129,27.308,45.129z"/>
			<path d="M37.656,39.103c0-0.034-0.005-0.069-0.008-0.104H23.37c-0.002,0.034-0.008,0.069-0.008,0.104
				c0,1.209,0.702,2.247,1.721,2.741h10.853C36.953,41.347,37.656,40.312,37.656,39.103z"/>
			<g>
				<path d="M55.977,22.557c0.4-0.39,0.872-0.701,1.396-0.917c-1.808-1.483-4.58-2.261-8.185-2.261c-0.666,0-1.35,0.026-2.052,0.076
					c-0.079,0.541-0.186,1.081-0.312,1.611c0.816-0.069,1.607-0.111,2.364-0.111C51.407,20.955,54.111,21.275,55.977,22.557z"/>
				<g>
					<path d="M11.943,20.755c0,0.044-0.005,0.087-0.01,0.131c0.72,0.004,1.47,0.041,2.243,0.111
						c-0.125-0.533-0.226-1.07-0.304-1.609c-0.709-0.055-1.397-0.083-2.063-0.083c-0.058,0-0.111,0.004-0.167,0.004
						C11.834,19.753,11.943,20.241,11.943,20.755z"/>
					<path d="M53.572,39.896c-0.277-0.474-0.145-0.89,0.01-1.151c2.734-2.998,4.643-5.959,5.551-8.649
						c-0.032,0-0.063,0.004-0.096,0.004c-0.523,0-1.024-0.097-1.49-0.263c-0.861,2.351-2.602,4.983-5.044,7.68
						c-0.521,0.383-1.02,0.149-1.278-0.032c-2.612-2.501-5.765-4.983-9.34-7.325c-0.103,0.107-0.202,0.217-0.307,0.322v1.377
						c3.211,2.162,6.081,4.461,8.488,6.767c0.183,0.247,0.436,0.755,0.048,1.339c-3.646,3.475-8.341,6.939-13.71,9.923
						c-1.783,0.992-3.59,1.898-5.392,2.717c-0.622,0.224-1.147-0.043-1.147-0.043c-1.768-0.814-3.539-1.714-5.293-2.695
						c-5.365-3.012-10.055-6.502-13.688-9.998c-0.349-0.534-0.16-1.002,0.014-1.263c2.42-2.309,5.311-4.606,8.546-6.769V30.48
						c-0.109-0.109-0.212-0.223-0.32-0.337c-3.563,2.319-6.711,4.779-9.32,7.259c-0.269,0.178-0.753,0.385-1.247,0.063
						C3.872,32.265,1.754,27.293,3.521,24.14c0.255-0.453,0.577-0.848,0.95-1.188c0.198-0.183,0.416-0.349,0.644-0.502
						c-0.253-0.478-0.4-1.019-0.417-1.594C3.586,21.5,2.726,22.34,2.146,23.37c-2.146,3.831,0.039,9.468,5.271,15.258
						c0.159,0.259,0.314,0.696,0.015,1.191c-4.187,4.596-6.435,9.096-6.109,12.679c0.457-0.338,0.979-0.587,1.549-0.729
						c0.011-2.962,2.051-6.738,5.579-10.653c0.248-0.177,0.76-0.433,1.285-0.104c3.707,3.562,8.492,7.099,14.067,10.227
						c1.311,0.735,2.634,1.422,3.958,2.066c0.18,0.112,0.525,0.396,0.081,0.65c-5.858,2.333-11.5,3.646-16.011,3.646
						c-1.158,0-2.45-0.091-3.685-0.354c-0.154,0.53-0.404,1.016-0.729,1.446c1.289,0.317,2.762,0.484,4.414,0.484
						c5.055,0,11.233-1.489,17.662-4.181c0.248-0.083,1.17-0.345,2.065,0.028l0,0c6.427,2.695,12.684,4.225,17.648,4.225
						c4.832,0,8.175-1.405,9.666-4.064C61.024,51.35,58.825,45.699,53.572,39.896z M57.497,54.416
						c-1.51,2.694-5.342,3.259-8.291,3.259c-4.531,0-10.211-1.339-16.111-3.717c-0.446-0.252-0.102-0.515,0.078-0.62
						c1.332-0.646,2.668-1.332,3.998-2.074c5.592-3.107,10.394-6.627,14.118-10.179c0.523-0.316,1.028-0.058,1.272,0.116
						C57.177,46.363,59.251,51.289,57.497,54.416z"/>
				</g>
			</g>
			<circle cx="3.924" cy="56.034" r="2.622"/>
			<circle cx="59.038" cy="25.706" r="2.623"/>
			<circle cx="8.319" cy="20.756" r="2.163"/>
		</g>
	</g>
	<g>
		<g>
			<path fill="#FFFFFF" d="M78.688,23.503l-7.282,19.74h6.776l0.713-2.308h7.103l0.712,2.308h6.776l-7.28-19.74H78.688z
				 M80.493,35.726l1.952-6.361l1.955,6.361H80.493z"/>
			<polygon fill="#FFFFFF" points="107.565,32.857 100.7,23.503 94.544,23.503 94.544,43.243 100.525,43.243 100.525,33.242 
				107.807,43.243 113.548,43.243 113.548,23.503 107.565,23.503 			"/>
			<polygon fill="#FFFFFF" points="124.997,30.161 121.323,23.503 114.604,23.503 122.005,35.401 122.005,43.243 127.982,43.243 
				127.982,35.401 135.323,23.503 128.606,23.503 			"/>
			<polygon fill="#FFFFFF" points="136.503,28.713 141.8,28.713 141.8,43.243 147.778,43.243 147.778,28.713 153.047,28.713 
				153.047,23.503 136.503,23.503 			"/>
			<polygon fill="#FFFFFF" points="168.077,30.489 161.002,30.489 161.002,23.503 155.024,23.503 155.024,43.243 161.002,43.243 
				161.002,35.697 168.077,35.697 168.077,43.243 174.055,43.243 174.055,23.503 168.077,23.503 			"/>
			<rect x="177.097" y="23.503" fill="#FFFFFF" width="5.979" height="19.74"/>
			<polygon fill="#FFFFFF" points="199.175,32.857 192.31,23.503 186.152,23.503 186.152,43.243 192.133,43.243 192.133,33.242 
				199.413,43.243 205.153,43.243 205.153,23.503 199.175,23.503 			"/>
			<path fill="#FFFFFF" d="M210.83,23.209c-1.657,0-3.079,1.389-3.079,3.107c0,1.656,1.153,2.752,2.573,2.752
				c0.33,0,0.621-0.061,0.768-0.117c-0.382,1.123-1.742,2.425-2.687,2.838l2.156,1.748c2.31-1.628,3.702-3.906,3.702-6.511
				C214.264,24.598,212.637,23.209,210.83,23.209z"/>
			<path fill="#FFFFFF" d="M225.565,36.732h3.675v0.71c-0.626,0.476-1.956,0.888-3.082,0.888c-2.869,0-4.793-2.188-4.793-4.939
				c0-2.755,1.924-4.946,4.793-4.946c1.777,0,3.082,1.245,3.64,2.457l5.033-2.573c-1.244-2.545-3.967-5.149-8.673-5.149
				c-5.979,0-10.861,3.876-10.861,10.212c0,6.303,4.882,10.208,10.861,10.208c3.877,0,6.84-1.567,9.026-3.996v-8.078h-9.619V36.732z
				"/>
			<path fill="#FFFFFF" d="M247.581,23.179c-6.097,0-10.804,4.145-10.804,10.212c0,6.066,4.707,10.208,10.804,10.208
				s10.804-4.142,10.804-10.208C258.385,27.323,253.678,23.179,247.581,23.179z M247.581,38.33c-2.872,0-4.733-2.188-4.733-4.939
				c0-2.755,1.861-4.946,4.733-4.946c2.871,0,4.736,2.191,4.736,4.946C252.317,36.142,250.452,38.33,247.581,38.33z"/>
			<polygon fill="#FFFFFF" points="260.301,43.243 275.279,43.243 275.279,38.033 266.282,38.033 266.282,35.876 275.07,35.876 
				275.07,30.668 266.282,30.668 266.282,28.713 275.279,28.713 275.279,23.503 260.301,23.503 			"/>
			<path fill="#FFFFFF" d="M283.265,29.129c0-0.504,0.323-0.89,1.509-0.89c1.865,0,4.085,0.65,5.8,1.954l3.197-4.234
				c-2.249-1.832-5.151-2.75-8.378-2.75c-5.415,0-8.197,3.195-8.197,6.538c0,7.786,11.013,5.861,11.013,7.756
				c0,0.77-1.067,1.067-2.191,1.067c-2.665,0-4.884-1.128-6.363-2.547l-3.108,4.439c2.1,1.896,4.973,3.136,9.175,3.136
				c5.299,0,8.524-2.515,8.524-6.866C294.244,29.393,283.265,30.993,283.265,29.129z"/>
		</g>
		<g>
			<path fill="#F7D072" d="M41.617,16.506c0-7.263-5.704-14.292-12.44-14.292c-6.734,0-11.95,7.029-11.95,14.292
				c0,3.935,1.608,7.465,4.15,9.875v8.072h14.751v-6.968C39.435,25.135,41.617,21.093,41.617,16.506z"/>
			<path fill="#FFFFFF" d="M20.624,28.543v5.011c0,0.024,0.007,0.05,0.008,0.072c-0.006,0.077-0.013,0.154-0.013,0.229
				c0,1.308,0.762,2.431,1.858,2.973h14.062c1.1-0.542,1.859-1.665,1.859-2.973c0-0.08-0.004-0.157-0.01-0.236
				c0-0.021,0.006-0.041,0.006-0.065v-5.011c3.567-3.207,5.756-7.998,5.756-12.698c0-8.24-6.705-15.199-14.641-15.199
				c-7.938,0-14.642,6.959-14.642,15.199C14.868,20.545,17.057,25.336,20.624,28.543z M29.51,3.997
				c6.117,0,11.287,5.425,11.287,11.848c0,3.919-2.016,8.093-5.137,10.624c-0.392,0.319-0.618,0.798-0.618,1.303v2.766h-4.725H28.64
				h-4.662v-2.766c0-0.505-0.228-0.983-0.62-1.303c-3.121-2.531-5.136-6.705-5.136-10.624C18.222,9.422,23.39,3.997,29.51,3.997z"/>
			<path fill="#FFFFFF" d="M26.308,44.129h6.405c1.225,0,2.223-0.927,2.36-2.114H23.947C24.085,43.202,25.082,44.129,26.308,44.129z
				"/>
			<path fill="#FFFFFF" d="M36.656,38.103c0-0.034-0.005-0.069-0.008-0.104H22.37c-0.002,0.034-0.008,0.069-0.008,0.104
				c0,1.209,0.702,2.247,1.721,2.741h10.853C35.953,40.347,36.656,39.312,36.656,38.103z"/>
			<path fill="#FFFFFF" d="M25.479,19.149l3.152-0.446l-1.887,7.566c-0.057,0.232,0.065,0.47,0.288,0.558
				c0.057,0.021,0.116,0.031,0.174,0.031c0.168,0,0.329-0.091,0.416-0.246l6.403-11.738c0.086-0.155,0.078-0.343-0.022-0.492
				c-0.098-0.147-0.27-0.229-0.446-0.207l-3.096,0.345l1.061-6.914c0.033-0.229-0.102-0.454-0.324-0.524
				c-0.222-0.07-0.465,0.031-0.57,0.24l-5.642,11.142c-0.077,0.158-0.063,0.348,0.04,0.493
				C25.128,19.099,25.303,19.175,25.479,19.149z"/>
			<g>
				<path fill="#FFFFFF" d="M54.977,21.557c0.4-0.39,0.872-0.701,1.396-0.917c-1.808-1.483-4.58-2.261-8.185-2.261
					c-0.666,0-1.35,0.026-2.052,0.076c-0.079,0.541-0.186,1.081-0.312,1.611c0.816-0.069,1.607-0.111,2.364-0.111
					C50.407,19.955,53.111,20.275,54.977,21.557z"/>
				<g>
					<path fill="#FFFFFF" d="M10.943,19.755c0,0.044-0.005,0.087-0.01,0.131c0.72,0.004,1.47,0.041,2.243,0.111
						c-0.125-0.533-0.226-1.07-0.304-1.609c-0.709-0.055-1.397-0.083-2.063-0.083c-0.058,0-0.111,0.004-0.167,0.004
						C10.834,18.753,10.943,19.241,10.943,19.755z"/>
					<path fill="#FFFFFF" d="M52.572,38.896c-0.277-0.474-0.145-0.89,0.01-1.151c2.734-2.998,4.643-5.959,5.551-8.649
						c-0.032,0-0.063,0.004-0.096,0.004c-0.523,0-1.024-0.097-1.49-0.263c-0.861,2.351-2.602,4.983-5.044,7.68
						c-0.521,0.383-1.02,0.149-1.278-0.032c-2.612-2.501-5.765-4.983-9.34-7.325c-0.103,0.107-0.202,0.217-0.307,0.322v1.377
						c3.211,2.162,6.081,4.461,8.488,6.767c0.183,0.247,0.436,0.755,0.048,1.339c-3.646,3.475-8.341,6.939-13.71,9.923
						c-1.783,0.992-3.59,1.898-5.392,2.717c-0.622,0.224-1.147-0.043-1.147-0.043c-1.768-0.814-3.539-1.714-5.293-2.695
						c-5.365-3.012-10.055-6.502-13.688-9.998c-0.349-0.534-0.16-1.002,0.014-1.263c2.42-2.309,5.311-4.606,8.546-6.769V29.48
						c-0.109-0.109-0.212-0.223-0.32-0.337c-3.563,2.319-6.711,4.779-9.32,7.259c-0.269,0.178-0.753,0.385-1.247,0.063
						C2.872,31.265,0.754,26.293,2.521,23.14c0.255-0.453,0.577-0.848,0.95-1.188c0.198-0.183,0.416-0.349,0.644-0.502
						c-0.253-0.478-0.4-1.019-0.417-1.594C2.586,20.5,1.726,21.34,1.146,22.37c-2.146,3.831,0.039,9.468,5.271,15.258
						c0.159,0.259,0.314,0.696,0.015,1.191c-4.187,4.596-6.435,9.096-6.109,12.679c0.457-0.338,0.979-0.587,1.549-0.729
						c0.011-2.962,2.051-6.738,5.579-10.653c0.248-0.177,0.76-0.433,1.285-0.104c3.707,3.562,8.492,7.099,14.067,10.227
						c1.311,0.735,2.634,1.422,3.958,2.066c0.18,0.112,0.525,0.396,0.081,0.65c-5.858,2.333-11.5,3.646-16.011,3.646
						c-1.158,0-2.45-0.091-3.685-0.354c-0.154,0.53-0.404,1.016-0.729,1.446c1.289,0.317,2.762,0.484,4.414,0.484
						c5.055,0,11.233-1.489,17.662-4.181c0.248-0.083,1.17-0.345,2.065,0.028l0,0c6.427,2.695,12.684,4.225,17.648,4.225
						c4.832,0,8.175-1.405,9.666-4.064C60.024,50.35,57.825,44.699,52.572,38.896z M56.497,53.416
						c-1.51,2.694-5.342,3.259-8.291,3.259c-4.531,0-10.211-1.339-16.111-3.717c-0.446-0.252-0.102-0.515,0.078-0.62
						c1.332-0.646,2.668-1.332,3.998-2.074c5.592-3.107,10.394-6.627,14.118-10.179c0.523-0.316,1.028-0.058,1.272,0.116
						C56.177,45.363,58.251,50.289,56.497,53.416z"/>
				</g>
			</g>
			<circle fill="#F7D072" cx="2.924" cy="55.034" r="2.622"/>
			<circle fill="#F7D072" cx="58.038" cy="24.706" r="2.623"/>
			<circle fill="#F7D072" cx="7.319" cy="19.756" r="2.163"/>
		</g>
	</g>
</g>
<g id="Layer_1">
</g>
<g id="guides" display="none">
</g>
</svg>
